<?xml version="1.0" standalone="no"?><!DOCTYPE svg PUBLIC "-//W3C//DTD SVG 1.1//EN" "http://www.w3.org/Graphics/SVG/1.1/DTD/svg11.dtd"><svg t="1648863750218" class="icon" viewBox="0 0 1024 1024" version="1.1" xmlns="http://www.w3.org/2000/svg" p-id="4838" width="48" height="48" xmlns:xlink="http://www.w3.org/1999/xlink"><defs><style type="text/css">@font-face { font-family: feedback-iconfont; src: url("//at.alicdn.com/t/font_1031158_u69w8yhxdu.woff2?t=1630033759944") format("woff2"), url("//at.alicdn.com/t/font_1031158_u69w8yhxdu.woff?t=1630033759944") format("woff"), url("//at.alicdn.com/t/font_1031158_u69w8yhxdu.ttf?t=1630033759944") format("truetype"); }
</style></defs><path d="M670.72 592.213333c11.946667-1.706667 34.133333-18.773333 42.666667-27.306666l34.133333-37.546667c15.36-20.48 42.666667-68.266667 39.253333-92.16-1.706667-8.533333-6.826667-22.186667-17.066666-20.48-10.24 1.706667-18.773333 15.36-22.186667 17.066667-3.413333 0-5.12-3.413333-5.12-6.826667-64.853333 44.373333-88.746667 100.693333-87.04 139.946667 0 6.826667 5.12 29.013333 15.36 27.306666zM554.666667 436.906667c-10.24 1.706667-18.773333 15.36-22.186667 17.066666-3.413333 0-5.12-3.413333-5.12-6.826666-64.853333 44.373333-88.746667 100.693333-87.04 139.946666 0 6.826667 5.12 29.013333 15.36 27.306667 11.946667-1.706667 34.133333-18.773333 42.666667-27.306667l34.133333-37.546666c15.36-20.48 42.666667-68.266667 39.253333-92.16-1.706667-6.826667-6.826667-20.48-17.066666-20.48z" fill="#0e932e" p-id="4839"></path><path d="M947.2 150.186667c-27.306667-27.306667-64.853333-42.666667-104.106667-42.666667H180.906667c-39.253333 0-76.8 15.36-104.106667 42.666667C49.493333 177.493333 34.133333 215.04 34.133333 254.293333v515.413334c0 39.253333 15.36 76.8 42.666667 104.106666 27.306667 27.306667 64.853333 42.666667 104.106667 42.666667h662.186666c39.253333 0 76.8-15.36 104.106667-42.666667 27.306667-27.306667 42.666667-64.853333 42.666667-104.106666V254.293333c0-39.253333-15.36-76.8-42.666667-104.106666zM764.586667 365.226667c15.36-1.706667 35.84 13.653333 37.546666 22.186666 0 3.413333-8.533333 5.12-10.24 8.533334 17.066667 3.413333 22.186667 22.186667 23.893334 37.546666 8.533333 71.68-47.786667 175.786667-138.24 192.853334-34.133333 6.826667-59.733333-25.6-63.146667-58.026667-5.12-42.666667 17.066667-92.16 42.666667-124.586667 27.306667-40.96 81.92-76.8 107.52-78.506666z m-537.6-146.773334h416.426666c10.24 0 18.773333 8.533333 18.773334 18.773334 0 10.24-8.533333 18.773333-18.773334 18.773333H226.986667c-10.24 0-18.773333-8.533333-18.773334-18.773333 0-10.24 8.533333-18.773333 18.773334-18.773334z m372.053333 237.226667C607.573333 527.36 551.253333 631.466667 460.8 648.533333c-34.133333 6.826667-59.733333-25.6-63.146667-58.026666-5.12-42.666667 17.066667-92.16 42.666667-124.586667 29.013333-39.253333 83.626667-75.093333 109.226667-78.506667 15.36-1.706667 35.84 13.653333 37.546666 22.186667 0 3.413333-8.533333 5.12-10.24 8.533333 17.066667 3.413333 20.48 22.186667 22.186667 37.546667z m-390.826667-145.066667c0-10.24 8.533333-18.773333 18.773334-18.773333h208.213333c10.24 0 18.773333 8.533333 18.773333 18.773333 0 10.24-8.533333 18.773333-18.773333 18.773334H226.986667c-10.24-1.706667-18.773333-10.24-18.773334-18.773334z m37.546667 256c17.066667-35.84 37.546667-71.68 58.026667-107.52h-1.706667l-34.133333 17.066667c-1.706667 1.706667-8.533333 5.12-10.24 5.12-3.413333 0-3.413333-5.12-3.413334-8.533333 0-10.24 6.826667-15.36 15.36-20.48 11.946667-8.533333 51.2-37.546667 63.146667-39.253334 10.24-1.706667 20.48 18.773333 20.48 23.893334 1.706667 10.24 1.706667 10.24-47.786667 116.053333-10.24 23.893333-35.84 78.506667-34.133333 104.106667 0 5.12 1.706667 8.533333 1.706667 13.653333 0 3.413333-1.706667 5.12-5.12 5.12-3.413333 0-5.12-1.706667-8.533334-3.413333-15.36-6.826667-32.426667-6.826667-34.133333-27.306667 0-17.066667 11.946667-59.733333 20.48-78.506667zM238.933333 769.706667c-11.946667-5.12 0-11.946667 0-11.946667-3.413333 1.706667 199.68-83.626667 486.4-100.693333 0 0-27.306667 3.413333-42.666666 5.12 0 0 56.32-5.12 87.04-5.12 0 0-264.533333 20.48-493.226667 100.693333 1.706667 0-30.72 15.36-37.546667 11.946667z m83.626667 10.24s-34.133333 15.36-39.253333 11.946666c-11.946667-5.12 0-11.946667 0-11.946666s170.666667-81.92 486.4-100.693334c0 0-27.306667 3.413333-42.666667 5.12 0 0 56.32-5.12 87.04-5.12-252.586667 20.48-254.293333 18.773333-491.52 100.693334z" fill="#0e932e" p-id="4840"></path></svg>