<svg xmlns="http://www.w3.org/2000/svg" width="833.72326" height="554.00006" viewBox="0 0 833.72326 554.00006" xmlns:xlink="http://www.w3.org/1999/xlink"><circle cx="512.40106" cy="148.87009" r="36" fill="#f2f2f2"/><circle cx="298.40109" cy="82.87008" r="30" fill="#f2f2f2"/><circle cx="200.40108" cy="366.87009" r="30" fill="#f2f2f2"/><path d="M169.90892,412.87006c8.69,10.29999,18.09,84.55566,28.12,93.53564l470.58002,1c10.03003-8.97998,19.42999-83.2356,28.12-93.53564l-526.82001-1Z" fill="#e6e6e6"/><path d="M316.59892,325.64572v102.55997h71.84998v-102.56c.0025-1.51425-.98328-2.85291-2.42999-3.29999-.33215-.10971-.68024-.16379-1.03003-.16h-64.91998c-1.91272-.00369-3.46628,1.54385-3.46997,3.45657v.00345Zm28.03998,35.24002c.03912-4.23602,3.50476-7.63831,7.74078-7.59924,4.18085,.03864,7.56067,3.4184,7.59924,7.59924v11.90002c-.02014,4.23602-3.47046,7.65369-7.70648,7.63354-4.20758-.02002-7.61353-3.42596-7.63354-7.63354v-11.90002Z" fill="#3f3d56"/><path d="M203.56889,171.12576v187.25998c.00394,4.96893,4.03107,8.99603,9,9H490.06889c4.96893-.00391,8.99609-4.03107,9-9V171.12576c-.01184-4.96402-4.03595-8.98367-9-8.98999H212.56889c-4.96402,.00632-8.98816,4.02597-9,8.98999Z" fill="#3f3d56"/><path d="M210.0789,173.45572v182.61996c.00458,2.6546,2.15543,4.80542,4.81,4.81H487.7589c2.6546-.00458,4.80542-2.1554,4.81-4.81V173.45569c-.00024-2.65802-2.15198-4.81424-4.81-4.82001H214.8889c-2.65799,.0058-4.80975,2.16202-4.81,4.82004Z" fill="#6c63ff"/><path d="M265.71892,439.08575c.56271,.70557,1.41754,1.11456,2.32001,1.10999h162.34003c1.64978-.00208,2.98553-1.34119,2.98352-2.99097-.00031-.20465-.02155-.40869-.06354-.60901l-2.52002-11.96997c-.21222-.99176-.91235-1.80859-1.85999-2.16998-.33771-.13251-.69727-.20038-1.06-.20001h-157.31c-.36273-.00037-.72232,.0675-1.06,.20001-.94769,.36139-1.6478,1.17816-1.85999,2.16998l-2.51999,11.96997c-.18161,.87952,.04242,1.79401,.60995,2.48999Z" fill="#3f3d56"/><path d="M223.66222,193.79245h255.32343c.56079-.01218,1.00549-.47665,.99329-1.03741-.01178-.54361-.44965-.98148-.99329-.99329H223.66222c-.56076,.01218-1.00546,.47665-.99329,1.03741,.01181,.54361,.44968,.98148,.99329,.99329Z" fill="#3f3d56"/><path d="M795.94298,392.19647c-.02002-.04999-.03003-.09003-.04993-.12994-.38629-1.04047-.83716-2.05579-1.3501-3.03998-2.90991-5.46997,.16998-13.87-3.10999-23.15002-5.29993-15.03998-11.76001-23.90997-21.22998-31.85999-.28003-.23999-.55994-.47-.84998-.70999l-.01001-.01001c-6.32007-5.19-13.93994-10.04001-23.40002-16.07999-1.97009-1.26001-8.78003,2.38-8.62-3.85999,.17993-6.92999,.37-14.10999-3.03003-18.59l-.21997-.29001-.3501-.09c-11.65735-2.30573-23.54688-3.22214-35.41992-2.73001h-.01001c-5.04126,.18723-10.04724,.92154-14.92993,2.19-.36011,.10001-.71997,.20001-1.07007,.32001-.27002,.07001-.53998,.16-.81006,.25l-.21997,.07999-.16992,.16c-3.28998,3.29001-4.04999,9.19-4.40997,15.34v.00995c-.06995,1.12006-.13,2.24005-.18005,3.35999-.28003,5.98001-14.71002,10.81-20.21002,13.51999-10.33002,5.10001-8.77191,16.98364-8.89191,16.98364,0,0-17.3681,35.65637-17.57806,71.76636-.01001,2.01001-.02338,4.03003-.03998,6.06-.12,16.82001-.43994,33.92999-1.69995,49.52002-.55005,6.70001-1.26001,13.10999-2.21002,19.09998-4.62012,29.16998-25.54999,4.95001-35.56006,24.35999,.32892,1.90863,.88281,3.77161,1.65002,5.54999,1.15002,.67999,2.33002,1.34003,3.5,2,5.19006,2.89001,10.47675,5.58673,15.85999,8.09003,.29999,.13995,.59998,.28003,.8999,.40997,9.87427,4.56866,20.05176,8.45123,30.46008,11.62,2.03003,.62,4.05994,1.21002,6.10999,1.77002,18.13367,5.00586,36.8056,7.80273,55.61011,8.33002,.07635-.00854,.1532-.01184,.22998-.01001,22.23907-.61493,44.3324-3.79938,65.83984-9.48999,.30005-.07996,.6001-.15991,.90015-.23999,1.40991-.38,2.80994-.76001,4.21002-1.15997,12.37799-3.52203,24.50525-7.87183,36.29999-13.02002,.01208,.43921,.05548,.87695,.12988,1.31,.01019,.14124,.03027,.28156,.06006,.41998,.02002-.15997,.03998-.31995,.04999-.47998,.05994-.46997,.10986-.95001,.15991-1.42999,6.12018-59.67999-6.5899-110.34998-16.3399-136.15002Z" fill="#ccc"/><circle cx="707.41901" cy="228.40308" r="58.07075" fill="#ffb6b6"/><path d="M711.71782,287.51959c8.85358-1.58182,17.55585-3.91702,26.01196-6.98013,8.30261-3.44214,24.88171-21.38211,28.61169-30.96069h0c2.77112-7.11676,3.40497-17.51059,3.4491-24.97629,.18652-19.99271-8.11261-39.12701-22.83691-52.65247-2.84998-2.83554-6.41339-4.84808-10.31323-5.82477-.34088-.06216-.68823-.10843-1.03601-.13809-5.47467-.35577-10.71814-2.33972-15.05707-5.69714-.84796-.68484-1.74414-1.30774-2.68164-1.86383-4.6723-2.60458-9.89465-4.0665-15.24011-4.26624-8.68256-.60101-20.1983,3.91785-34.22552,13.43723-7.04724,4.78268-15.68597,5.23151-22.4267,5.0885-.76599,.00122-1.47388,.40884-1.85944,1.07074-2.24841,3.11926-5.59412,5.27185-9.36475,6.02518-2.29193,.55182-4.09369,4.22507-6.21216,8.97006-.48059,1.07706-1.04138,2.33405-1.47021,3.11569l-.3269-1.2775-1.02661,1.6962c-5.28265,8.72543-2.4917,20.08121,6.2337,25.36383,2.34503,1.41974,4.97662,2.29965,7.70398,2.5759,2.44586,.16568,4.90228,.08124,7.33099-.25201,1.48071-.15256,3.01239-.31039,4.5036-.34109,9.7937,.0939,18.81793,5.32632,23.76489,13.77936,2.05621,3.45633,6.52496,4.59134,9.98132,2.53513,.54279-.32291,1.04126-.71506,1.48285-1.1666,2.58734-2.96918,6.46411-4.48407,10.37909-4.05576,1.74194,.56778,3.23566,1.71719,4.23083,3.25549,1.17645,1.70062,2.83276,3.01227,4.75775,3.76764,6.44684,1.87924,9.45728,15.18137,9.52618,26.74582,.06641,11.14709-2.42761,19.70621-6.06482,20.81384-2.80017,.85233-3.08734,1.11899-3.1958,1.6647l-.09668,.48843,.40344,.36069c1.68982,.26468,3.41681,.16171,5.06317-.30182Z" fill="#2f2e41"/><ellipse cx="506.1909" cy="460.63092" rx="20.13235" ry="6.4252" fill="#3f3d56"/><ellipse cx="506.1909" cy="456.34744" rx="20.13235" ry="6.4252" fill="#3f3d56"/><path d="M502.65123,460.6532l3-.04492-.82764-56.01855c-.24487-18.60101,9.41705-35.92981,25.36914-45.5l57.25928-34.22607-1.53906-2.5752-57.25928,34.22705c-16.87073,10.12079-27.08911,28.4472-26.83008,48.11914l.82764,56.01855Z" fill="#3f3d56"/><path d="M585.9657,350.11728h.00006c-4.02167,0-7.28192-3.26022-7.28192-7.28189v-45.40485c0-4.02167,3.26025-7.28192,7.28192-7.28192h-.00006c4.02167,0,7.28192,3.26025,7.28192,7.28192v45.40485c0,4.02167-3.26025,7.28189-7.28192,7.28189Z" fill="#6c63ff"/><path d="M490.73692,384.55267c2.52313,9.22919,12.05023,14.66553,21.27942,12.1424,.98407-.26898,1.94238-.62439,2.86389-1.06207l43.18292,43.87921,6.6817-31.28644-42.03162-36.87189c-4.6925-8.39752-15.30414-11.40106-23.70166-6.70856-7.02686,3.92657-10.44781,12.15674-8.27472,19.90735h.00006Z" fill="#ffb6b6"/><path d="M716.30119,338.73517l-.27423-.15295-31.48651-10.82791c-8.08643-2.78122-16.97784-1.95547-24.41382,2.26727-1.70667,.96561-3.31177,2.10056-4.79108,3.38773l-.00983,.0014c-4.93365,4.26242-8.33344,10.02509-9.67834,16.40479l-16.53815,78.51758-33.25189-17.92004-13.54999-3.23584-12.33405-12.37793-30.80078-12.54144-1.70984,2.04089-15.49799,18.5246-1.21729,1.45575,34.125,49.36993,15.29633,1.66455,4.28503,7.62299,.30255,.13879,12.53986,5.65198,53.48181,24.09546,25.89899-19.8208,4.05261-3.11108c33.50592-31.0426,49.16852-56.01447,55.70776-75.03363,3.461-10.04681,4.37231-18.41833,4.02942-25.16718-1.06476-20.85754-13.63416-30.55566-14.16559-30.9549Z" fill="#ccc"/><path d="M745.90117,357.87006h-15.00012c-43.35431,0-78.49994,35.14557-78.49994,78.49988v.00006c-13.99274,17.30432-13.13586,39.03302,0,64.4201l-42.99548-17.9248c-6.12262-2.53699-13.14258,.36969-15.67963,6.49231-2.52924,6.10394,.35156,13.10406,6.44452,15.65967l52.23059,21.77484v4.05426c0,12.71558,10.30804,23.02362,23.02362,23.02362h125.95276c12.71558,0,23.02362-10.30804,23.02362-23.02362,9.33765-34.25751,15.18243-67.48053,0-94.4765-.00006-43.35431-35.14563-78.49982-78.49994-78.49982Z" fill="#3f3d56"/><circle cx="386.40109" cy="287.87009" r="4" fill="#f2f2f2"/><circle cx="400.40109" cy="287.87009" r="4" fill="#f2f2f2"/><circle cx="414.40109" cy="287.87009" r="4" fill="#f2f2f2"/><path d="M285.66121,245.9053l29.85727,.44501c.82843-.02872,1.47675-.72354,1.44803-1.55197-.02731-.78815-.65988-1.42072-1.44803-1.44803l-29.85727-.44501c-.82843,.02872-1.47675,.72354-1.44803,1.55197,.02731,.78815,.65988,1.42072,1.44803,1.44803Z" fill="#fff"/><path d="M321.63313,277.30112c3.53342,2.72699,9.21255,.34094,10.19858-3.87155,1.14899-4.90863-3.13824-9.52869-8.00351-9.42215-5.41125,.1185-9.23605,4.66992-9.82193,9.79187-.45868,4.7233,1.46738,9.36444,5.13562,12.37509,3.90186,3.41412,9.24686,4.66269,14.25745,3.33051,1.84778-.54471,1.06122-3.4408-.79749-2.89282-6.58575,1.69788-13.34177-2.08636-15.33414-8.58908-.94141-3.53845-.05219-7.95712,3.24564-9.98166,2.96423-1.81976,7.16086-1.159,8.29095,2.4866,.67084,1.92014-.34192,4.02057-2.26205,4.69141-1.1463,.40051-2.41635,.21021-3.39496-.50864-.71606-.41254-1.63074-.1727-2.05228,.53812-.39746,.71802-.16052,1.62164,.53812,2.05228v.00003Z" fill="#fff"/><path d="M352.24144,263.76285c-3.01166,3.37207-5.70874,7.01242-8.05762,10.87555l-3.50555-9.26642c-.67664-1.78857-3.57788-1.01318-2.89288,.79755,1.48999,3.93854,2.97998,7.87711,4.46997,11.81567-1.71588,3.17493-3.19934,6.47003-4.43878,9.85944-.66351,1.81622,2.23462,2.59924,2.89288,.79749,.86462-2.35165,1.85504-4.65515,2.96698-6.90045,1.36499,3.60809,2.72992,7.21622,4.09491,10.82434,.67664,1.78857,3.57782,1.01318,2.89282-.79755-1.70801-4.51489-3.41602-9.02979-5.12402-13.54462,2.48895-4.41827,5.4469-8.55539,8.82257-12.33966,1.28381-1.43518-.83081-3.56396-2.12128-2.12134Z" fill="#fff"/><path d="M298.96901,244.43967l2.0976,44.96671c.08966,1.9223,3.09018,1.93323,3,0l-2.0976-44.96667c-.08966-1.9223-3.09018-1.93323-3,0v-.00003Z" fill="#fff"/><path d="M372.96806,267.87009h-7.55646c-.01892-1.51837-.039-3.03619-.06958-4.55212-.03888-1.92786-3.03906-1.93445-3,0,.03058,1.5174,.06116,3.03479,.0918,4.55212h-6.47363c-.82843,.02872-1.47675,.72354-1.44806,1.55197,.02734,.78815,.65991,1.42072,1.44806,1.44803h6.53412c.01288,.6377,.0257,1.27542,.03857,1.91315-.04242,2.95148,.08417,5.90298,.37909,8.84,.64038,4.71539,3.83649,10.07401,9.297,9.61115,1.90961-.16187,1.92682-3.16327,0-3-4.92786,.41766-6.34265-5.37274-6.52802-9.16406-.13342-2.72852-.19061-5.46417-.23016-8.20026h7.51727c.82843-.02893,1.4765-.72397,1.44757-1.5524-.02753-.78778-.65979-1.42004-1.44757-1.44757Z" fill="#f2f2f2"/><path d="M78.67146,407.59058c-.97202,.00409-1.94168,.09558-2.89731,.27325l-15.90154-100.66589,15.93044-96.91049c2.18689-13.30167-6.82341-25.85764-20.12508-28.04453-12.00392-1.97354-23.6286,5.19351-27.25693,16.8049v.00009c-5.97192,19.10971-8.92714,39.03384-8.75909,59.05426l.5556,66.09076,42.39226,101.50183c1.06218,8.87317,9.11638,15.2052,17.98953,14.14307,8.87317-1.06219,15.20523-9.11639,14.14307-17.98956-.97397-8.13629-7.87656-14.26013-16.07095-14.25775v.00006Z" fill="#ffb8b8"/><path d="M49.54887,175.80957c-21.18774,.03546-38.35484,17.20288-38.38995,38.39062l7.8,78.7998,.7,7.05957,.36,.02051,27.39,1.36035h.00999l13.28999,.65918,2.28,.11035,2.61002-9.20996,22.34-78.7998c-.02274-21.1929-17.19714-38.36755-38.39005-38.39062Z" fill="#e6e6e6"/><path d="M50.72893,554l-12.60001-38.66016s-23.10001-23.49023,6.53-85.84961c.64999-1.37988,1.32996-2.77051,2.03999-4.19043,1.23999-2.49023,2.56668-5.04364,3.98-7.66016,2.14-3.7998,4.31-7.72949,6.75999-11.78998l2.24001,.40039,2.12,.37012,7.25,1.28027h.00999l104.99001,18.5s-1.92999,8.61914-2.97,17.86914c-.82999,7.59082-1.10001,15.27051,.85999,18.52051,4.23999,7.25977-1.48999,26.87988-1.48999,26.87988,0,0,.32001,1.90039,.85999,5.25977v.01074c.53,3.26953,1.26999,7.90918,2.10999,13.5293,.04001,.37988,.09,.76013,.14999,1.14062,1.32999,9.09961,2.92001,20.58984,4.34,32.93945,.44,3.75,.85999,7.58008,1.26001,11.4502l-128.43994-.00006Z" fill="#2f2e41"/><path d="M20.80341,196.1929c2.63647-7.27112,8.79608-12.69781,16.34148-14.397,5.50351-1.56479,11.2314-2.19083,16.94299-1.85181,16.72009,.65863,12.50423-36.7998,29.06042-34.37442,0,0,15.58301-5.56128,27.77563,4.62927,11.07635,9.25754,18.71201,34.43607,21.5546,33.00369,.60413-.29858,2.05499-.267,4.08514,.00247,23.72348,3.14868,40.79501,24.42999,39.38528,48.32001l-1.20511,20.42218s8.5177,12.82288-3.84238,35.46011l-15.57257,69.59259s38.9613,77.16797,21,93-88.38391-8.85437-88.38391-8.85437c0,0-39.49161-12.20813-47.82048-17.49915-17.59323-11.17676,4.89252-36.66113,18.79485-35.46002,.74782-2.96442-.23682-6.09735-2.54601-8.10101-3.84238-2.45367,.46281-8.00885,.7869-8.51801-.37042,.37012-3.28688,3.4256-5.50883-3.00916s4.62927-14.53601,4.62927-14.53601l-19.35033-41.66345-15.23021-32.91406-1.85182-3.79599,3.17682-20.47931-.29726-.61499c-6.76939-14.11334-8.26756-30.1825-4.22379-45.30396,1.46695-5.56064,2.5228-10.62775,2.2993-13.05762Z" fill="#e6e6e6"/><path d="M179.16893,554h-6.68005c1.85001-3.96973,3.68005-7.82031,5.42004-11.4502,.44,3.75,.85999,7.58008,1.26001,11.4502Z" fill="#2f2e41"/><path d="M310.2903,321.05399c-.59183,.77106-1.11319,1.59375-1.55777,2.45813l-89.32993-49.05756-66.87216-71.92731c-9.1788-9.87253-24.62292-10.43488-34.49545-1.2561-8.90891,8.2829-10.35895,21.86142-3.40005,31.83884l.00009,.00006c11.45349,16.42142,25.39786,30.95618,41.33047,43.08038l52.59683,40.02338,106.20923,28.62372c7.66614,4.59259,17.60379,2.10095,22.19638-5.56519,4.59259-7.66611,2.10095-17.60376-5.56519-22.19635-7.02951-4.21118-16.09747-2.50262-21.11246,3.978Z" fill="#ffb8b8"/><path d="M189.37431,301.60931l26.51816-30.93301,1.47705-1.72961-54.31754-73.61069c-2.34775-1.828-4.905-3.36966-7.61761-4.59241l-.00717-.00699c-19.29861-8.77158-42.05402-.2377-50.82556,19.06094-7.36353,16.20068-2.62579,35.33817,11.4454,46.23245l15.85257,9.94101,57.2374,35.91031,.2373-.272Z" fill="#e6e6e6"/><path d="M141.7795,111.90948c-13.53955,24.75824-44.58606,33.85278-69.34431,20.31323-24.75824-13.53955-33.85278-44.58606-20.31323-69.34431,13.53955-24.75824,44.58607-33.85278,69.34431-20.31323,10.39978,5.68735,18.49866,14.81358,22.90948,25.81569,.23383,.58475,.44443,1.16949,.65485,1.77765,4.94037,13.74106,3.75681,28.94031-3.2511,41.75098Z" fill="#ffb6b6"/><path d="M149.12383,70.15851c-2.19867-6.15157-1.23959-2.94714-3.46167-9.0753,1.45032,5.42648-.84201,8.46715-.63159,9.0753h-60.83719V34.793c17.82327-7.06381,35.24863-13.075,45.77411,0,19.53152,.00084,35.36472,15.83405,35.36557,35.36555l-16.20923-.00005Z" fill="#2f2e41"/><path d="M127.5584,168.46631c-.04681-.65485-.11691-1.33325-.21057-1.9881-.81741-4.80469-2.14246-9.50903-3.95291-14.034-1.75424-4.93524-3.53189-9.89401-5.30942-14.82928,2.28909,8.95862,1.59097,18.41965-1.98822,26.94525-10.26822-7.99933-3.789-26.29025-17.215-26.29025-32.27808,0-65.49182-26.17334-65.49182-58.47482,0-32.27823,13.8468-56.4165,46.12488-56.4165,32.30164,0,58.49838,14.7823,59.12982,47.06053-39.76285,9.35602-3.57867,94.75267-11.08676,98.02718Z" fill="#2f2e41"/><circle cx="37.42389" cy="37.42389" r="37.42389" fill="#2f2e41"/><ellipse cx="234.72266" cy="180.30383" rx="4.51807" ry="4.61876" fill="#3f3d56"/><ellipse cx="250.33054" cy="180.30383" rx="4.51807" ry="4.61876" fill="#3f3d56"/><ellipse cx="265.93841" cy="180.30383" rx="4.51807" ry="4.61876" fill="#3f3d56"/><path d="M283.73553,183.95435c-.13878,0-.27731-.05374-.38192-.1607l-3.04854-3.11637c-.20322-.20765-.20322-.53948,0-.74714l3.04854-3.11611c.20687-.21078,.54548-.21418,.75548-.00835,.21105,.20635,.2147,.5447,.00835,.75548l-2.68306,2.74254,2.68306,2.7428c.20635,.21078,.2027,.54913-.00835,.75548-.10383,.10174-.2387,.15235-.37357,.15235Z" fill="#3f3d56"/><path d="M288.85827,183.95435c-.13487,0-.26974-.05061-.37357-.15235-.21105-.20635-.2147-.54444-.00835-.75548l2.6828-2.7428-2.6828-2.74254c-.20635-.21078-.2027-.54913,.00835-.75548,.21052-.20661,.54913-.2027,.75548,.00835l3.04828,3.11611c.20322,.20765,.20322,.53948,0,.74714l-3.04828,3.11637c-.10461,.10696-.24313,.1607-.38192,.1607Z" fill="#3f3d56"/><path d="M458.31095,176.21981h-5.66854c-.64647,0-1.17004,.52357-1.17004,1.17004v5.67389c0,.64647,.52357,1.17004,1.17004,1.17004h5.66854c.64647,0,1.17539-.52357,1.17539-1.17004v-5.67389c0-.64647-.52892-1.17004-1.17539-1.17004Z" fill="#3f3d56"/><path d="M444.42006,176.21981h-5.66854c-.64647,0-1.17004,.52357-1.17004,1.17004v5.67389c0,.64647,.52357,1.17004,1.17004,1.17004h5.66854c.64647,0,1.17539-.52357,1.17539-1.17004v-5.67389c0-.64647-.52892-1.17004-1.17539-1.17004Z" fill="#3f3d56"/><path d="M471.40043,176.48695h-5.66854c-.64647,0-1.17004,.52357-1.17004,1.17004v5.67389c0,.64647,.52357,1.17004,1.17004,1.17004h5.66854c.64647,0,1.17539-.52357,1.17539-1.17004v-5.67389c0-.64647-.52892-1.17004-1.17539-1.17004Z" fill="#3f3d56"/><path d="M377.22138,178.64537h-49.92643c-.79073,0-1.42651,.64112-1.42651,1.42651s.63578,1.42648,1.42651,1.42648h49.92643c.78535,0,1.42648-.64112,1.42648-1.42648s-.64112-1.42651-1.42648-1.42651Z" fill="#3f3d56"/></svg>